<svg width="70" height="24" viewBox="0 0 70 24" fill="none" xmlns="http://www.w3.org/2000/svg">
<path d="M8.28906 14.8984C8.28906 15.9141 7.92188 16.7109 7.1875 17.2891C6.45312 17.8672 5.4401 18.1562 4.14844 18.1562C2.85677 18.1562 1.79948 17.9557 0.976562 17.5547V15.7891C1.4974 16.0339 2.04948 16.2266 2.63281 16.3672C3.22135 16.5078 3.76823 16.5781 4.27344 16.5781C5.01302 16.5781 5.55729 16.4375 5.90625 16.1562C6.26042 15.875 6.4375 15.4974 6.4375 15.0234C6.4375 14.5964 6.27604 14.2344 5.95312 13.9375C5.63021 13.6406 4.96354 13.2891 3.95312 12.8828C2.91146 12.4609 2.17708 11.9792 1.75 11.4375C1.32292 10.8958 1.10938 10.2448 1.10938 9.48438C1.10938 8.53125 1.44792 7.78125 2.125 7.23438C2.80208 6.6875 3.71094 6.41406 4.85156 6.41406C5.94531 6.41406 7.03385 6.65365 8.11719 7.13281L7.52344 8.65625C6.50781 8.22917 5.60156 8.01562 4.80469 8.01562C4.20052 8.01562 3.74219 8.14844 3.42969 8.41406C3.11719 8.67448 2.96094 9.02083 2.96094 9.45312C2.96094 9.75 3.02344 10.0052 3.14844 10.2188C3.27344 10.4271 3.47917 10.625 3.76562 10.8125C4.05208 11 4.56771 11.2474 5.3125 11.5547C6.15104 11.9036 6.76562 12.2292 7.15625 12.5312C7.54688 12.8333 7.83333 13.1745 8.01562 13.5547C8.19792 13.9349 8.28906 14.3828 8.28906 14.8984ZM14.0781 18.1562C12.7344 18.1562 11.6823 17.7656 10.9219 16.9844C10.1667 16.1979 9.78906 15.1172 9.78906 13.7422C9.78906 12.3307 10.1406 11.2214 10.8438 10.4141C11.5469 9.60677 12.513 9.20312 13.7422 9.20312C14.8828 9.20312 15.7839 9.54948 16.4453 10.2422C17.1068 10.9349 17.4375 11.888 17.4375 13.1016V14.0938H11.6797C11.7057 14.9323 11.9323 15.5781 12.3594 16.0312C12.7865 16.4792 13.388 16.7031 14.1641 16.7031C14.6745 16.7031 15.1484 16.6562 15.5859 16.5625C16.0286 16.4635 16.5026 16.3021 17.0078 16.0781V17.5703C16.5599 17.7839 16.1068 17.9349 15.6484 18.0234C15.1901 18.112 14.6667 18.1562 14.0781 18.1562ZM13.7422 10.5938C13.1589 10.5938 12.6901 10.7786 12.3359 11.1484C11.987 11.5182 11.7786 12.0573 11.7109 12.7656H15.6328C15.6224 12.0521 15.4505 11.513 15.1172 11.1484C14.7839 10.7786 14.3255 10.5938 13.7422 10.5938ZM23.2969 18.1562C21.9531 18.1562 20.901 17.7656 20.1406 16.9844C19.3854 16.1979 19.0078 15.1172 19.0078 13.7422C19.0078 12.3307 19.3594 11.2214 20.0625 10.4141C20.7656 9.60677 21.7318 9.20312 22.9609 9.20312C24.1016 9.20312 25.0026 9.54948 25.6641 10.2422C26.3255 10.9349 26.6562 11.888 26.6562 13.1016V14.0938H20.8984C20.9245 14.9323 21.151 15.5781 21.5781 16.0312C22.0052 16.4792 22.6068 16.7031 23.3828 16.7031C23.8932 16.7031 24.3672 16.6562 24.8047 16.5625C25.2474 16.4635 25.7214 16.3021 26.2266 16.0781V17.5703C25.7786 17.7839 25.3255 17.9349 24.8672 18.0234C24.4089 18.112 23.8854 18.1562 23.2969 18.1562ZM22.9609 10.5938C22.3776 10.5938 21.9089 10.7786 21.5547 11.1484C21.2057 11.5182 20.9974 12.0573 20.9297 12.7656H24.8516C24.8411 12.0521 24.6693 11.513 24.3359 11.1484C24.0026 10.7786 23.5443 10.5938 22.9609 10.5938ZM38.3047 18L37.9375 16.7969H37.875C37.4583 17.3229 37.0391 17.6823 36.6172 17.875C36.1953 18.0625 35.6536 18.1562 34.9922 18.1562C34.1432 18.1562 33.4792 17.9271 33 17.4688C32.526 17.0104 32.2891 16.362 32.2891 15.5234C32.2891 14.6328 32.6198 13.9609 33.2812 13.5078C33.9427 13.0547 34.9505 12.8073 36.3047 12.7656L37.7969 12.7188V12.2578C37.7969 11.7057 37.6667 11.2943 37.4062 11.0234C37.151 10.7474 36.7526 10.6094 36.2109 10.6094C35.7682 10.6094 35.3438 10.6745 34.9375 10.8047C34.5312 10.9349 34.1406 11.0885 33.7656 11.2656L33.1719 9.95312C33.6406 9.70833 34.1536 9.52344 34.7109 9.39844C35.2682 9.26823 35.7943 9.20312 36.2891 9.20312C37.388 9.20312 38.2161 9.44271 38.7734 9.92188C39.3359 10.401 39.6172 11.1536 39.6172 12.1797V18H38.3047ZM35.5703 16.75C36.237 16.75 36.7708 16.5651 37.1719 16.1953C37.5781 15.8203 37.7812 15.2969 37.7812 14.625V13.875L36.6719 13.9219C35.8073 13.9531 35.1771 14.099 34.7812 14.3594C34.3906 14.6146 34.1953 15.0078 34.1953 15.5391C34.1953 15.9245 34.3099 16.224 34.5391 16.4375C34.7682 16.6458 35.112 16.75 35.5703 16.75ZM44.0156 18H42.1797V5.84375H44.0156V18ZM48.4844 18H46.6484V5.84375H48.4844V18Z" fill="#503E9D"/>
<path d="M60 16.59L64.6395 12L60 7.41L61.4353 6L67.5 12L61.4353 18L60 16.59Z" fill="#503E9D"/>
</svg>
